<svg width="494" height="218" viewBox="0 0 494 218" fill="none" xmlns="http://www.w3.org/2000/svg">
<path d="M7.872 81.784L6.82688 83.4892L6.83885 83.4965L6.85092 83.5037L7.872 81.784ZM4.672 78.584L2.95229 79.6051L2.95946 79.6171L2.9668 79.6291L4.672 78.584ZM3.456 36.92V34.92H1.456V36.92H3.456ZM11.904 36.92H13.904V34.92H11.904V36.92ZM12.096 74.296L10.496 75.496L10.6674 75.7246L10.896 75.896L12.096 74.296ZM40.768 74.296L41.968 75.896L42.0817 75.8107L42.1822 75.7102L40.768 74.296ZM41.024 36.92V34.92H39.024V36.92H41.024ZM49.536 36.92H51.536V34.92H49.536V36.92ZM48.32 78.584L50.0252 79.6291L50.0325 79.6171L50.0397 79.6051L48.32 78.584ZM45.056 81.784L44.0349 80.0643L44.0229 80.0715L44.0109 80.0788L45.056 81.784ZM12.352 81C11.0821 81 9.94264 80.6875 8.89308 80.0643L6.85092 83.5037C8.53202 84.5019 10.3793 85 12.352 85V81ZM8.91712 80.0788C7.86347 79.433 7.02299 78.5925 6.3772 77.5389L2.9668 79.6291C3.94234 81.2208 5.2352 82.5137 6.82688 83.4892L8.91712 80.0788ZM6.39171 77.5629C5.76853 76.5134 5.456 75.3739 5.456 74.104H1.456C1.456 76.0767 1.95414 77.924 2.95229 79.6051L6.39171 77.5629ZM5.456 74.104V36.92H1.456V74.104H5.456ZM3.456 38.92H11.904V34.92H3.456V38.92ZM9.904 36.92V73.72H13.904V36.92H9.904ZM9.904 73.72C9.904 74.3661 10.1084 74.9791 10.496 75.496L13.696 73.096C13.754 73.1733 13.8098 73.2728 13.8494 73.3915C13.8889 73.5103 13.904 73.6234 13.904 73.72H9.904ZM10.896 75.896C11.4129 76.2836 12.0259 76.488 12.672 76.488V72.488C12.7686 72.488 12.8817 72.5031 13.0005 72.5426C13.1192 72.5822 13.2187 72.638 13.296 72.696L10.896 75.896ZM12.672 76.488H40.192V72.488H12.672V76.488ZM40.192 76.488C40.8381 76.488 41.4511 76.2836 41.968 75.896L39.568 72.696C39.6453 72.638 39.7448 72.5822 39.8635 72.5426C39.9823 72.5031 40.0954 72.488 40.192 72.488V76.488ZM42.1822 75.7102C42.6743 75.2182 43.024 74.5352 43.024 73.72H39.024C39.024 73.5513 39.0596 73.3755 39.1324 73.2117C39.2031 73.0527 39.291 72.9445 39.3538 72.8818L42.1822 75.7102ZM43.024 73.72V36.92H39.024V73.72H43.024ZM41.024 38.92H49.536V34.92H41.024V38.92ZM47.536 36.92V74.104H51.536V36.92H47.536ZM47.536 74.104C47.536 75.3739 47.2235 76.5134 46.6003 77.5629L50.0397 79.6051C51.0379 77.924 51.536 76.0767 51.536 74.104H47.536ZM46.6148 77.5389C45.9781 78.5777 45.1276 79.4155 44.0349 80.0643L46.0771 83.5037C47.715 82.5312 49.0406 81.2356 50.0252 79.6291L46.6148 77.5389ZM44.0109 80.0788C43.0173 80.6878 41.9099 81 40.64 81V85C42.6128 85 44.4494 84.5015 46.1011 83.4892L44.0109 80.0788ZM40.64 81H12.352V85H40.64V81ZM59.016 83H57.016V85H59.016V83ZM59.016 45.88V43.88H57.016V45.88H59.016ZM92.296 47.096L91.2509 48.8012L91.2628 48.8085L91.2749 48.8157L92.296 47.096ZM95.496 50.296L93.7664 51.3003L93.7784 51.3208L93.7908 51.3411L95.496 50.296ZM96.712 83V85H98.712V83H96.712ZM88.328 83H86.328V85H88.328V83ZM88.072 54.52L86.472 55.72L86.6434 55.9486L86.872 56.12L88.072 54.52ZM67.592 54.52L69.0062 55.9342L69.0062 55.9342L67.592 54.52ZM67.4 83V85H69.4V83H67.4ZM61.016 83V45.88H57.016V83H61.016ZM59.016 47.88H87.88V43.88H59.016V47.88ZM87.88 47.88C89.1499 47.88 90.2573 48.1922 91.2509 48.8012L93.3411 45.3908C91.6894 44.3784 89.8528 43.88 87.88 43.88V47.88ZM91.2749 48.8157C92.3586 49.4591 93.1764 50.2841 93.7664 51.3003L97.2256 49.2917C96.2796 47.6626 94.9641 46.3542 93.3171 45.3763L91.2749 48.8157ZM93.7908 51.3411C94.3998 52.3347 94.712 53.4421 94.712 54.712H98.712C98.712 52.7392 98.2136 50.9026 97.2012 49.2509L93.7908 51.3411ZM94.712 54.712V83H98.712V54.712H94.712ZM96.712 81H88.328V85H96.712V81ZM90.328 83V55.032H86.328V83H90.328ZM90.328 55.032C90.328 54.1892 89.9463 53.4257 89.272 52.92L86.872 56.12C86.7386 56.0199 86.587 55.8621 86.4752 55.6384C86.3633 55.4147 86.328 55.1988 86.328 55.032H90.328ZM89.672 53.32C89.1663 52.6457 88.4028 52.264 87.56 52.264V56.264C87.3932 56.264 87.1773 56.2287 86.9536 56.1169C86.7299 56.005 86.5721 55.8534 86.472 55.72L89.672 53.32ZM87.56 52.264H68.168V56.264H87.56V52.264ZM68.168 52.264C67.3528 52.264 66.6698 52.6137 66.1778 53.1058L69.0062 55.9342C68.9435 55.997 68.8353 56.0849 68.6763 56.1556C68.5126 56.2284 68.3368 56.264 68.168 56.264V52.264ZM66.1778 53.1058C65.6083 53.6753 65.4 54.3902 65.4 55.032H69.4C69.4 55.1251 69.3859 55.2723 69.3207 55.4462C69.2531 55.6263 69.1455 55.7949 69.0062 55.9342L66.1778 53.1058ZM65.4 55.032V83H69.4V55.032H65.4ZM67.4 81H59.016V85H67.4V81ZM107.227 78.584L108.932 77.5389L107.227 78.584ZM106.011 33.656V31.656H104.011V33.656H106.011ZM114.459 33.656H116.459V31.656H114.459V33.656ZM114.651 74.424L113.05 75.624L113.222 75.8526L113.451 76.024L114.651 74.424ZM122.331 74.616H124.331V72.616H122.331V74.616ZM122.331 83V85H124.331V83H122.331ZM114.843 81C113.573 81 112.465 80.6878 111.472 80.0788L109.381 83.4892C111.033 84.5015 112.87 85 114.843 85V81ZM111.472 80.0788C110.418 79.433 109.577 78.5925 108.932 77.5389L105.521 79.6291C106.497 81.2208 107.79 82.5137 109.381 83.4892L111.472 80.0788ZM108.932 77.5389C108.323 76.5453 108.011 75.4379 108.011 74.168H104.011C104.011 76.1408 104.509 77.9774 105.521 79.6291L108.932 77.5389ZM108.011 74.168V33.656H104.011V74.168H108.011ZM106.011 35.656H114.459V31.656H106.011V35.656ZM112.459 33.656V73.848H116.459V33.656H112.459ZM112.459 73.848C112.459 74.4941 112.663 75.1071 113.05 75.624L116.251 73.224C116.308 73.3013 116.364 73.4008 116.404 73.5195C116.443 73.6383 116.459 73.7514 116.459 73.848H112.459ZM113.451 76.024C113.967 76.4116 114.58 76.616 115.227 76.616V72.616C115.323 72.616 115.436 72.6311 115.555 72.6706C115.674 72.7102 115.773 72.766 115.851 72.824L113.451 76.024ZM115.227 76.616H122.331V72.616H115.227V76.616ZM120.331 74.616V83H124.331V74.616H120.331ZM122.331 81H114.843V85H122.331V81ZM130.785 78.584L132.49 77.5389L130.785 78.584ZM130.785 50.296L129.08 49.2509L130.785 50.296ZM162.849 47.096L161.804 48.8012L161.816 48.8085L161.828 48.8157L162.849 47.096ZM166.049 50.296L164.319 51.3003L164.331 51.3208L164.344 51.3411L166.049 50.296ZM167.265 68.664V70.664H169.265V68.664H167.265ZM137.953 68.664V66.664H135.953V68.664H137.953ZM138.145 74.424L136.545 75.624L136.716 75.8526L136.945 76.024L138.145 74.424ZM167.265 74.616H169.265V72.616H167.265V74.616ZM167.265 83V85H169.265V83H167.265ZM137.953 61.112H135.953V63.112H137.953V61.112ZM158.881 61.112V63.112H160.881V61.112H158.881ZM158.625 54.52L157.025 55.72L157.196 55.9486L157.425 56.12L158.625 54.52ZM138.145 54.52L139.559 55.9342L138.145 54.52ZM138.401 81C137.131 81 136.024 80.6878 135.03 80.0788L132.94 83.4892C134.592 84.5015 136.428 85 138.401 85V81ZM135.03 80.0788C133.976 79.433 133.136 78.5925 132.49 77.5389L129.08 79.6291C130.055 81.2208 131.348 82.5137 132.94 83.4892L135.03 80.0788ZM132.49 77.5389C131.881 76.5453 131.569 75.4379 131.569 74.168H127.569C127.569 76.1408 128.067 77.9774 129.08 79.6291L132.49 77.5389ZM131.569 74.168V54.712H127.569V74.168H131.569ZM131.569 54.712C131.569 53.4421 131.881 52.3347 132.49 51.3411L129.08 49.2509C128.067 50.9026 127.569 52.7392 127.569 54.712H131.569ZM132.49 51.3411C133.136 50.2875 133.976 49.447 135.03 48.8012L132.94 45.3908C131.348 46.3663 130.055 47.6592 129.08 49.2509L132.49 51.3411ZM135.03 48.8012C136.024 48.1922 137.131 47.88 138.401 47.88V43.88C136.428 43.88 134.592 44.3784 132.94 45.3908L135.03 48.8012ZM138.401 47.88H158.433V43.88H138.401V47.88ZM158.433 47.88C159.703 47.88 160.81 48.1922 161.804 48.8012L163.894 45.3908C162.242 44.3784 160.406 43.88 158.433 43.88V47.88ZM161.828 48.8157C162.912 49.4591 163.729 50.2841 164.319 51.3003L167.779 49.2917C166.833 47.6626 165.517 46.3542 163.87 45.3763L161.828 48.8157ZM164.344 51.3411C164.953 52.3347 165.265 53.4421 165.265 54.712H169.265C169.265 52.7392 168.767 50.9026 167.754 49.2509L164.344 51.3411ZM165.265 54.712V68.664H169.265V54.712H165.265ZM167.265 66.664H137.953V70.664H167.265V66.664ZM135.953 68.664V73.848H139.953V68.664H135.953ZM135.953 73.848C135.953 74.4941 136.157 75.1071 136.545 75.624L139.745 73.224C139.803 73.3013 139.859 73.4008 139.898 73.5195C139.938 73.6383 139.953 73.7514 139.953 73.848H135.953ZM136.945 76.024C137.462 76.4116 138.075 76.616 138.721 76.616V72.616C138.818 72.616 138.931 72.6311 139.049 72.6706C139.168 72.7102 139.268 72.766 139.345 72.824L136.945 76.024ZM138.721 76.616H167.265V72.616H138.721V76.616ZM165.265 74.616V83H169.265V74.616H165.265ZM167.265 81H138.401V85H167.265V81ZM137.953 63.112H158.881V59.112H137.953V63.112ZM160.881 61.112V55.032H156.881V61.112H160.881ZM160.881 55.032C160.881 54.1892 160.499 53.4257 159.825 52.92L157.425 56.12C157.292 56.0199 157.14 55.8621 157.028 55.6384C156.916 55.4147 156.881 55.1988 156.881 55.032H160.881ZM160.225 53.32C159.719 52.6457 158.956 52.264 158.113 52.264V56.264C157.946 56.264 157.73 56.2287 157.507 56.1169C157.283 56.005 157.125 55.8534 157.025 55.72L160.225 53.32ZM158.113 52.264H138.721V56.264H158.113V52.264ZM138.721 52.264C137.906 52.264 137.223 52.6137 136.731 53.1058L139.559 55.9342C139.496 55.997 139.388 56.0849 139.229 56.1556C139.066 56.2284 138.89 56.264 138.721 56.264V52.264ZM136.731 53.1058C136.161 53.6753 135.953 54.3902 135.953 55.032H139.953C139.953 55.1251 139.939 55.2723 139.874 55.4462C139.806 55.6263 139.699 55.7949 139.559 55.9342L136.731 53.1058ZM135.953 55.032V61.112H139.953V55.032H135.953ZM180.858 81.784L179.812 83.4892L179.824 83.4965L179.836 83.5037L180.858 81.784ZM177.658 78.584L175.928 79.5883L175.94 79.6088L175.952 79.6291L177.658 78.584ZM176.506 60.216V58.216H174.506V60.216H176.506ZM205.818 60.216V62.216H207.818V60.216H205.818ZM205.562 54.52L203.962 55.72L204.133 55.9486L204.362 56.12L205.562 54.52ZM176.506 54.264H174.506V56.264H176.506V54.264ZM176.506 45.88V43.88H174.506V45.88H176.506ZM209.786 47.096L208.74 48.8012L208.752 48.8085L208.764 48.8157L209.786 47.096ZM212.986 50.296L211.256 51.3003L211.268 51.3208L211.28 51.3411L212.986 50.296ZM214.202 83V85H216.202V83H214.202ZM205.818 74.616V76.616H207.818V74.616H205.818ZM205.818 67.768H207.818V65.768H205.818V67.768ZM184.89 67.768V65.768H182.89V67.768H184.89ZM185.082 74.424L183.482 75.624L183.653 75.8526L183.882 76.024L185.082 74.424ZM185.338 81C184.068 81 182.928 80.6875 181.879 80.0643L179.836 83.5037C181.518 84.5019 183.365 85 185.338 85V81ZM181.903 80.0788C180.849 79.433 180.008 78.5925 179.363 77.5389L175.952 79.6291C176.928 81.2208 178.221 82.5137 179.812 83.4892L181.903 80.0788ZM179.387 77.5797C178.807 76.5806 178.506 75.4586 178.506 74.168H174.506C174.506 76.1201 174.972 77.9421 175.928 79.5883L179.387 77.5797ZM178.506 74.168V60.216H174.506V74.168H178.506ZM176.506 62.216H205.818V58.216H176.506V62.216ZM207.818 60.216V55.032H203.818V60.216H207.818ZM207.818 55.032C207.818 54.1892 207.436 53.4257 206.762 52.92L204.362 56.12C204.228 56.0199 204.077 55.8621 203.965 55.6384C203.853 55.4147 203.818 55.1988 203.818 55.032H207.818ZM207.161 53.32C206.656 52.6457 205.892 52.264 205.049 52.264V56.264C204.883 56.264 204.667 56.2287 204.443 56.1169C204.219 56.005 204.062 55.8534 203.962 55.72L207.161 53.32ZM205.049 52.264H176.506V56.264H205.049V52.264ZM178.506 54.264V45.88H174.506V54.264H178.506ZM176.506 47.88H205.37V43.88H176.506V47.88ZM205.37 47.88C206.639 47.88 207.747 48.1922 208.74 48.8012L210.831 45.3908C209.179 44.3784 207.342 43.88 205.37 43.88V47.88ZM208.764 48.8157C209.848 49.4591 210.666 50.2841 211.256 51.3003L214.715 49.2917C213.769 47.6626 212.454 46.3542 210.807 45.3763L208.764 48.8157ZM211.28 51.3411C211.889 52.3347 212.202 53.4421 212.202 54.712H216.202C216.202 52.7392 215.703 50.9026 214.691 49.2509L211.28 51.3411ZM212.202 54.712V83H216.202V54.712H212.202ZM214.202 81H185.338V85H214.202V81ZM185.658 76.616H205.818V72.616H185.658V76.616ZM207.818 74.616V67.768H203.818V74.616H207.818ZM205.818 65.768H184.89V69.768H205.818V65.768ZM182.89 67.768V73.848H186.89V67.768H182.89ZM182.89 73.848C182.89 74.4941 183.094 75.1071 183.482 75.624L186.682 73.224C186.739 73.3013 186.795 73.4008 186.835 73.5195C186.874 73.6383 186.89 73.7514 186.89 73.848H182.89ZM183.882 76.024C184.398 76.4116 185.011 76.616 185.658 76.616V72.616C185.754 72.616 185.867 72.6311 185.986 72.6706C186.105 72.7102 186.204 72.766 186.282 72.824L183.882 76.024ZM226.288 81.784L227.333 80.0788L226.288 81.784ZM223.088 78.584L224.793 77.5389L223.088 78.584ZM221.872 72.76V70.76H219.872V72.76H221.872ZM230.256 72.76H232.256V70.76H230.256V72.76ZM230.448 74.424L228.848 75.624L229.019 75.8526L229.248 76.024L230.448 74.424ZM250.928 74.424L252.342 75.8382L252.342 75.8382L250.928 74.424ZM250.928 68.92L249.328 70.12L249.499 70.3486L249.728 70.52L250.928 68.92ZM226.288 67.448L227.333 65.7428L226.288 67.448ZM223.088 64.248L221.383 65.2931L223.088 64.248ZM223.088 50.296L224.793 51.3411L223.088 50.296ZM226.288 47.096L227.333 48.8012L226.288 47.096ZM255.216 47.096L254.171 48.8012V48.8012L255.216 47.096ZM258.416 50.296L256.711 51.3411L258.416 50.296ZM259.632 56.12V58.12H261.632V56.12H259.632ZM251.184 56.12H249.184V58.12H251.184V56.12ZM250.928 54.52L249.328 55.72L249.499 55.9486L249.728 56.12L250.928 54.52ZM230.448 54.52L231.862 55.9342V55.9342L230.448 54.52ZM230.448 60.024L228.848 61.224L229.019 61.4526L229.248 61.624L230.448 60.024ZM255.216 61.432L254.171 63.1372V63.1372L255.216 61.432ZM258.416 64.632L256.711 65.6771L258.416 64.632ZM258.416 78.584L256.711 77.5389L258.416 78.584ZM255.216 81.784L254.171 80.0788L255.216 81.784ZM230.704 81C229.434 81 228.327 80.6878 227.333 80.0788L225.243 83.4892C226.895 84.5015 228.731 85 230.704 85V81ZM227.333 80.0788C226.279 79.433 225.439 78.5925 224.793 77.5389L221.383 79.6291C222.358 81.2208 223.651 82.5137 225.243 83.4892L227.333 80.0788ZM224.793 77.5389C224.184 76.5453 223.872 75.4379 223.872 74.168H219.872C219.872 76.1408 220.37 77.9774 221.383 79.6291L224.793 77.5389ZM223.872 74.168V72.76H219.872V74.168H223.872ZM221.872 74.76H230.256V70.76H221.872V74.76ZM228.256 72.76V73.848H232.256V72.76H228.256ZM228.256 73.848C228.256 74.4941 228.46 75.1071 228.848 75.624L232.048 73.224C232.106 73.3013 232.162 73.4008 232.201 73.5195C232.241 73.6383 232.256 73.7514 232.256 73.848H228.256ZM229.248 76.024C229.765 76.4116 230.378 76.616 231.024 76.616V72.616C231.121 72.616 231.234 72.6311 231.352 72.6706C231.471 72.7102 231.571 72.766 231.648 72.824L229.248 76.024ZM231.024 76.616H250.416V72.616H231.024V76.616ZM250.416 76.616C251.058 76.616 251.773 76.4077 252.342 75.8382L249.514 73.0098C249.653 72.8705 249.822 72.7629 250.002 72.6953C250.176 72.6301 250.323 72.616 250.416 72.616V76.616ZM252.342 75.8382C252.834 75.3462 253.184 74.6632 253.184 73.848H249.184C249.184 73.6793 249.22 73.5034 249.292 73.3397C249.363 73.1807 249.451 73.0725 249.514 73.0098L252.342 75.8382ZM253.184 73.848V69.432H249.184V73.848H253.184ZM253.184 69.432C253.184 68.5891 252.802 67.8257 252.128 67.32L249.728 70.52C249.595 70.4199 249.443 70.2621 249.331 70.0384C249.219 69.8147 249.184 69.5988 249.184 69.432H253.184ZM252.528 67.72C252.022 67.0457 251.259 66.664 250.416 66.664V70.664C250.249 70.664 250.033 70.6287 249.81 70.5169C249.586 70.405 249.428 70.2534 249.328 70.12L252.528 67.72ZM250.416 66.664H230.704V70.664H250.416V66.664ZM230.704 66.664C229.434 66.664 228.327 66.3518 227.333 65.7428L225.243 69.1532C226.895 70.1656 228.731 70.664 230.704 70.664V66.664ZM227.333 65.7428C226.279 65.097 225.439 64.2565 224.793 63.2029L221.383 65.2931C222.358 66.8848 223.651 68.1777 225.243 69.1532L227.333 65.7428ZM224.793 63.2029C224.184 62.2093 223.872 61.1019 223.872 59.832H219.872C219.872 61.8048 220.37 63.6414 221.383 65.2931L224.793 63.2029ZM223.872 59.832V54.712H219.872V59.832H223.872ZM223.872 54.712C223.872 53.4421 224.184 52.3347 224.793 51.3411L221.383 49.2509C220.37 50.9026 219.872 52.7392 219.872 54.712H223.872ZM224.793 51.3411C225.439 50.2875 226.279 49.447 227.333 48.8012L225.243 45.3908C223.651 46.3663 222.358 47.6592 221.383 49.2509L224.793 51.3411ZM227.333 48.8012C228.327 48.1922 229.434 47.88 230.704 47.88V43.88C228.731 43.88 226.895 44.3784 225.243 45.3908L227.333 48.8012ZM230.704 47.88H250.736V43.88H230.704V47.88ZM250.736 47.88C252.059 47.88 253.186 48.1974 254.171 48.8012L256.261 45.3908C254.601 44.3733 252.741 43.88 250.736 43.88V47.88ZM254.171 48.8012C255.225 49.447 256.065 50.2875 256.711 51.3411L260.121 49.2509C259.146 47.6592 257.853 46.3663 256.261 45.3908L254.171 48.8012ZM256.711 51.3411C257.32 52.3347 257.632 53.4421 257.632 54.712H261.632C261.632 52.7392 261.134 50.9026 260.121 49.2509L256.711 51.3411ZM257.632 54.712V56.12H261.632V54.712H257.632ZM259.632 54.12H251.184V58.12H259.632V54.12ZM253.184 56.12V55.032H249.184V56.12H253.184ZM253.184 55.032C253.184 54.1892 252.802 53.4257 252.128 52.92L249.728 56.12C249.595 56.0199 249.443 55.8621 249.331 55.6384C249.219 55.4147 249.184 55.1988 249.184 55.032H253.184ZM252.528 53.32C252.022 52.6457 251.259 52.264 250.416 52.264V56.264C250.249 56.264 250.033 56.2287 249.81 56.1169C249.586 56.005 249.428 55.8534 249.328 55.72L252.528 53.32ZM250.416 52.264H231.024V56.264H250.416V52.264ZM231.024 52.264C230.209 52.264 229.526 52.6137 229.034 53.1058L231.862 55.9342C231.799 55.997 231.691 56.0849 231.532 56.1556C231.369 56.2284 231.193 56.264 231.024 56.264V52.264ZM229.034 53.1058C228.464 53.6753 228.256 54.3902 228.256 55.032H232.256C232.256 55.1251 232.242 55.2723 232.177 55.4462C232.109 55.6263 232.002 55.7949 231.862 55.9342L229.034 53.1058ZM228.256 55.032V59.448H232.256V55.032H228.256ZM228.256 59.448C228.256 60.0941 228.46 60.7071 228.848 61.224L232.048 58.824C232.106 58.9013 232.162 59.0008 232.201 59.1195C232.241 59.2383 232.256 59.3514 232.256 59.448H228.256ZM229.248 61.624C229.765 62.0116 230.378 62.216 231.024 62.216V58.216C231.121 58.216 231.234 58.2311 231.352 58.2706C231.471 58.3102 231.571 58.366 231.648 58.424L229.248 61.624ZM231.024 62.216H250.736V58.216H231.024V62.216ZM250.736 62.216C252.059 62.216 253.186 62.5334 254.171 63.1372L256.261 59.7268C254.601 58.7093 252.741 58.216 250.736 58.216V62.216ZM254.171 63.1372C255.225 63.783 256.065 64.6235 256.711 65.6771L260.121 63.5869C259.146 61.9952 257.853 60.7023 256.261 59.7268L254.171 63.1372ZM256.711 65.6771C257.32 66.6707 257.632 67.7781 257.632 69.048H261.632C261.632 67.0752 261.134 65.2386 260.121 63.5869L256.711 65.6771ZM257.632 69.048V74.168H261.632V69.048H257.632ZM257.632 74.168C257.632 75.4379 257.32 76.5453 256.711 77.5389L260.121 79.6291C261.134 77.9774 261.632 76.1408 261.632 74.168H257.632ZM256.711 77.5389C256.065 78.5925 255.225 79.433 254.171 80.0788L256.261 83.4892C257.853 82.5137 259.146 81.2208 260.121 79.6291L256.711 77.5389ZM254.171 80.0788C253.186 80.6826 252.059 81 250.736 81V85C252.741 85 254.601 84.5067 256.261 83.4892L254.171 80.0788ZM250.736 81H230.704V85H250.736V81ZM268.691 83H266.691V85H268.691V83ZM268.691 33.72V31.72H266.691V33.72H268.691ZM277.075 33.72H279.075V31.72H277.075V33.72ZM277.075 45.88H275.075V47.88H277.075V45.88ZM301.971 47.096L300.926 48.8012V48.8012L301.971 47.096ZM305.171 50.296L303.466 51.3411L305.171 50.296ZM306.387 83V85H308.387V83H306.387ZM298.003 83H296.003V85H298.003V83ZM297.747 54.52L296.147 55.72L296.318 55.9486L296.547 56.12L297.747 54.52ZM277.267 54.52L278.681 55.9342L278.681 55.9342L277.267 54.52ZM277.075 83V85H279.075V83H277.075ZM270.691 83V33.72H266.691V83H270.691ZM268.691 35.72H277.075V31.72H268.691V35.72ZM275.075 33.72V45.88H279.075V33.72H275.075ZM277.075 47.88H297.555V43.88H277.075V47.88ZM297.555 47.88C298.825 47.88 299.932 48.1922 300.926 48.8012L303.016 45.3908C301.364 44.3784 299.528 43.88 297.555 43.88V47.88ZM300.926 48.8012C301.98 49.447 302.82 50.2875 303.466 51.3411L306.876 49.2509C305.901 47.6592 304.608 46.3663 303.016 45.3908L300.926 48.8012ZM303.466 51.3411C304.075 52.3347 304.387 53.4421 304.387 54.712H308.387C308.387 52.7392 307.889 50.9026 306.876 49.2509L303.466 51.3411ZM304.387 54.712V83H308.387V54.712H304.387ZM306.387 81H298.003V85H306.387V81ZM300.003 83V55.032H296.003V83H300.003ZM300.003 55.032C300.003 54.1892 299.621 53.4257 298.947 52.92L296.547 56.12C296.414 56.0199 296.262 55.8621 296.15 55.6384C296.038 55.4147 296.003 55.1988 296.003 55.032H300.003ZM299.347 53.32C298.841 52.6457 298.078 52.264 297.235 52.264V56.264C297.068 56.264 296.852 56.2287 296.629 56.1169C296.405 56.005 296.247 55.8534 296.147 55.72L299.347 53.32ZM297.235 52.264H277.843V56.264H297.235V52.264ZM277.843 52.264C277.028 52.264 276.345 52.6137 275.853 53.1058L278.681 55.9342C278.618 55.997 278.51 56.0849 278.351 56.1556C278.188 56.2284 278.012 56.264 277.843 56.264V52.264ZM275.853 53.1058C275.283 53.6753 275.075 54.3902 275.075 55.032H279.075C279.075 55.1251 279.061 55.2723 278.996 55.4462C278.928 55.6263 278.821 55.7949 278.681 55.9342L275.853 53.1058ZM275.075 55.032V83H279.075V55.032H275.075ZM277.075 81H268.691V85H277.075V81Z" fill="url(#paint0_linear_5_41)"/>
<path d="M332.404 92.76V84.312H354.74C354.953 84.312 355.124 84.2267 355.252 84.056C355.422 83.928 355.508 83.7573 355.508 83.544V79H335.028C333.449 79 331.977 78.5947 330.612 77.784C329.289 76.9733 328.222 75.9067 327.412 74.584C326.601 73.2613 326.196 71.7893 326.196 70.168V42.008H334.58V69.848C334.58 70.0613 334.644 70.2533 334.772 70.424C334.942 70.552 335.134 70.616 335.348 70.616H354.74C354.953 70.616 355.124 70.552 355.252 70.424C355.422 70.2533 355.508 70.0613 355.508 69.848V42.008H363.892V83.928C363.892 85.5493 363.508 87.0213 362.74 88.344C361.972 89.7093 360.905 90.776 359.54 91.544C358.217 92.3547 356.745 92.76 355.124 92.76H332.404ZM380.414 79C378.792 79 377.32 78.5947 375.998 77.784C374.675 76.9733 373.608 75.9067 372.798 74.584C371.987 73.2613 371.582 71.7893 371.582 70.168V50.712C371.582 49.0907 371.987 47.6187 372.798 46.296C373.608 44.9733 374.675 43.9067 375.998 43.096C377.32 42.2853 378.792 41.88 380.414 41.88H400.446C402.067 41.88 403.539 42.2853 404.862 43.096C406.227 43.9067 407.294 44.9733 408.062 46.296C408.872 47.6187 409.278 49.0907 409.278 50.712V70.168C409.278 71.7893 408.872 73.2613 408.062 74.584C407.294 75.9067 406.248 76.9733 404.926 77.784C403.603 78.5947 402.11 79 400.446 79H380.414ZM380.734 70.616H400.126C400.339 70.616 400.51 70.552 400.638 70.424C400.808 70.2533 400.894 70.0613 400.894 69.848V51.032C400.894 50.8187 400.808 50.648 400.638 50.52C400.51 50.3493 400.339 50.264 400.126 50.264H380.734C380.52 50.264 380.328 50.3493 380.158 50.52C380.03 50.648 379.966 50.8187 379.966 51.032V69.848C379.966 70.0613 380.03 70.2533 380.158 70.424C380.328 70.552 380.52 70.616 380.734 70.616ZM425.727 79C424.105 79 422.612 78.5947 421.247 77.784C419.924 76.9733 418.857 75.9067 418.047 74.584C417.279 73.2613 416.895 71.7893 416.895 70.168V41.88H425.279V69.848C425.279 70.0613 425.343 70.2533 425.471 70.424C425.641 70.552 425.833 70.616 426.047 70.616H445.439C445.652 70.616 445.823 70.552 445.951 70.424C446.121 70.2533 446.207 70.0613 446.207 69.848V41.88H454.591V70.168C454.591 71.7893 454.185 73.2613 453.375 74.584C452.607 75.9067 451.561 76.9733 450.239 77.784C448.916 78.5947 447.423 79 445.759 79H425.727ZM463.891 79V50.712C463.891 49.0907 464.296 47.6187 465.107 46.296C465.917 44.9733 466.984 43.9067 468.307 43.096C469.672 42.2853 471.144 41.88 472.723 41.88H493.331V50.264H473.043C472.829 50.264 472.637 50.3493 472.467 50.52C472.339 50.648 472.275 50.8187 472.275 51.032V79H463.891ZM3.593 188V141.92H11.977V188H3.593ZM21.4835 188V150.88H50.3475C51.9688 150.88 53.4408 151.285 54.7635 152.096C56.1288 152.907 57.1955 153.973 57.9635 155.296C58.7742 156.619 59.1795 158.091 59.1795 159.712V188H50.7955V160.032C50.7955 159.819 50.7102 159.648 50.5395 159.52C50.4115 159.349 50.2408 159.264 50.0275 159.264H30.6355C30.4222 159.264 30.2302 159.349 30.0595 159.52C29.9315 159.648 29.8675 159.819 29.8675 160.032V188H21.4835ZM68.606 188V150.88H97.47C99.0913 150.88 100.563 151.285 101.886 152.096C103.251 152.907 104.318 153.973 105.086 155.296C105.897 156.619 106.302 158.091 106.302 159.712V188H97.918V160.032C97.918 159.819 97.8327 159.648 97.662 159.52C97.534 159.349 97.3633 159.264 97.15 159.264H77.758C77.5447 159.264 77.3527 159.349 77.182 159.52C77.054 159.648 76.99 159.819 76.99 160.032V188H68.606ZM123.056 188C121.435 188 119.963 187.595 118.64 186.784C117.317 185.973 116.251 184.907 115.44 183.584C114.629 182.261 114.224 180.789 114.224 179.168V159.712C114.224 158.091 114.629 156.619 115.44 155.296C116.251 153.973 117.317 152.907 118.64 152.096C119.963 151.285 121.435 150.88 123.056 150.88H143.088C144.709 150.88 146.181 151.285 147.504 152.096C148.869 152.907 149.936 153.973 150.704 155.296C151.515 156.619 151.92 158.091 151.92 159.712V173.664H122.608V178.848C122.608 179.061 122.672 179.253 122.8 179.424C122.971 179.552 123.163 179.616 123.376 179.616H151.92V188H123.056ZM122.608 166.112H143.536V160.032C143.536 159.819 143.451 159.648 143.28 159.52C143.152 159.349 142.981 159.264 142.768 159.264H123.376C123.163 159.264 122.971 159.349 122.8 159.52C122.672 159.648 122.608 159.819 122.608 160.032V166.112ZM160.786 188V159.712C160.786 158.091 161.191 156.619 162.002 155.296C162.812 153.973 163.879 152.907 165.202 152.096C166.567 151.285 168.039 150.88 169.618 150.88H190.226V159.264H169.938C169.724 159.264 169.532 159.349 169.362 159.52C169.234 159.648 169.17 159.819 169.17 160.032V188H160.786ZM219.289 188V150.816C219.289 149.195 219.695 147.723 220.505 146.4C221.316 145.035 222.383 143.947 223.705 143.136C225.071 142.325 226.564 141.92 228.186 141.92H256.41C258.031 141.92 259.524 142.325 260.889 143.136C262.255 143.947 263.343 145.035 264.154 146.4C264.964 147.723 265.37 149.195 265.37 150.816V188H256.858V172.512H227.738V188H219.289ZM227.738 164.064H256.858V151.2C256.858 150.987 256.772 150.816 256.602 150.688C256.431 150.517 256.239 150.432 256.026 150.432H228.505C228.292 150.432 228.1 150.517 227.929 150.688C227.802 150.816 227.738 150.987 227.738 151.2V164.064ZM283.862 188C282.24 188 280.768 187.595 279.446 186.784C278.123 185.973 277.056 184.907 276.246 183.584C275.435 182.261 275.03 180.789 275.03 179.168V139.488H283.414V150.88H297.878V159.264H283.414V178.848C283.414 179.061 283.478 179.253 283.606 179.424C283.776 179.552 283.968 179.616 284.182 179.616H297.878V188H283.862ZM306.716 188V138.72H315.1V150.88H335.58C337.201 150.88 338.673 151.285 339.996 152.096C341.319 152.907 342.385 153.973 343.196 155.296C344.007 156.619 344.412 158.091 344.412 159.712V188H336.028V160.032C336.028 159.819 335.943 159.648 335.772 159.52C335.644 159.349 335.473 159.264 335.26 159.264H315.868C315.655 159.264 315.463 159.349 315.292 159.52C315.164 159.648 315.1 159.819 315.1 160.032V188H306.716ZM360.73 188C359.109 188 357.637 187.595 356.314 186.784C354.991 185.973 353.925 184.907 353.114 183.584C352.303 182.261 351.898 180.789 351.898 179.168V138.656H360.346V178.848C360.346 179.061 360.41 179.253 360.538 179.424C360.709 179.552 360.901 179.616 361.114 179.616H368.218V188H360.73ZM384.289 188C382.667 188 381.195 187.595 379.873 186.784C378.55 185.973 377.483 184.907 376.673 183.584C375.862 182.261 375.457 180.789 375.457 179.168V159.712C375.457 158.091 375.862 156.619 376.673 155.296C377.483 153.973 378.55 152.907 379.873 152.096C381.195 151.285 382.667 150.88 384.289 150.88H404.321C405.942 150.88 407.414 151.285 408.737 152.096C410.102 152.907 411.169 153.973 411.937 155.296C412.747 156.619 413.153 158.091 413.153 159.712V173.664H383.841V178.848C383.841 179.061 383.905 179.253 384.033 179.424C384.203 179.552 384.395 179.616 384.609 179.616H413.153V188H384.289ZM383.841 166.112H404.769V160.032C404.769 159.819 404.683 159.648 404.513 159.52C404.385 159.349 404.214 159.264 404.001 159.264H384.609C384.395 159.264 384.203 159.349 384.033 159.52C383.905 159.648 383.841 159.819 383.841 160.032V166.112ZM431.289 188C429.668 188 428.196 187.595 426.873 186.784C425.55 185.973 424.484 184.907 423.673 183.584C422.862 182.261 422.457 180.789 422.457 179.168V139.488H430.841V150.88H445.305V159.264H430.841V178.848C430.841 179.061 430.905 179.253 431.033 179.424C431.204 179.552 431.396 179.616 431.609 179.616H445.305V188H431.289ZM461.784 188C460.162 188 458.69 187.595 457.368 186.784C456.045 185.973 454.978 184.907 454.168 183.584C453.357 182.261 452.952 180.789 452.952 179.168V159.712C452.952 158.091 453.357 156.619 454.168 155.296C454.978 153.973 456.045 152.907 457.368 152.096C458.69 151.285 460.162 150.88 461.784 150.88H481.816C483.437 150.88 484.909 151.285 486.232 152.096C487.597 152.907 488.664 153.973 489.432 155.296C490.242 156.619 490.648 158.091 490.648 159.712V173.664H461.336V178.848C461.336 179.061 461.4 179.253 461.528 179.424C461.698 179.552 461.89 179.616 462.104 179.616H490.648V188H461.784ZM461.336 166.112H482.264V160.032C482.264 159.819 482.178 159.648 482.007 159.52C481.88 159.349 481.709 159.264 481.496 159.264H462.104C461.89 159.264 461.698 159.349 461.528 159.52C461.4 159.648 461.336 159.819 461.336 160.032V166.112Z" fill="white"/>
<path d="M332.404 92.76H331.404V93.76H332.404V92.76ZM332.404 84.312V83.312H331.404V84.312H332.404ZM355.251 84.056L354.652 83.256L354.537 83.3417L354.452 83.456L355.251 84.056ZM355.508 79H356.508V78H355.508V79ZM330.612 77.784L330.089 78.6367L330.101 78.6439L330.612 77.784ZM327.411 74.584L328.264 74.0614L327.411 74.584ZM326.195 42.008V41.008H325.195V42.008H326.195ZM334.579 42.008H335.579V41.008H334.579V42.008ZM334.772 70.424L333.971 71.024L334.057 71.1383L334.172 71.224L334.772 70.424ZM355.251 70.424L355.959 71.1311L355.251 70.424ZM355.508 42.008V41.008H354.508V42.008H355.508ZM363.892 42.008H364.892V41.008H363.892V42.008ZM362.74 88.344L361.875 87.8418L361.868 87.8537L362.74 88.344ZM359.54 91.544L359.049 90.6724L359.033 90.6816L359.017 90.6914L359.54 91.544ZM333.404 92.76V84.312H331.404V92.76H333.404ZM332.404 85.312H354.74V83.312H332.404V85.312ZM354.74 85.312C355.268 85.312 355.735 85.0785 356.052 84.656L354.452 83.456C354.47 83.432 354.511 83.3882 354.58 83.3536C354.649 83.319 354.709 83.312 354.74 83.312V85.312ZM355.852 84.856C356.274 84.5391 356.508 84.0721 356.508 83.544H354.508C354.508 83.5139 354.514 83.454 354.549 83.3848C354.584 83.3156 354.627 83.274 354.652 83.256L355.852 84.856ZM356.508 83.544V79H354.508V83.544H356.508ZM355.508 78H335.027V80H355.508V78ZM335.027 78C333.63 78 332.334 77.6436 331.122 76.9241L330.101 78.6439C331.62 79.5457 333.268 80 335.027 80V78ZM331.134 76.9314C329.946 76.2032 328.992 75.2496 328.264 74.0614L326.559 75.1066C327.452 76.5637 328.632 77.7435 330.089 78.6366L331.134 76.9314ZM328.264 74.0614C327.554 72.9033 327.195 71.6136 327.195 70.168H325.195C325.195 71.9651 325.647 73.6194 326.559 75.1066L328.264 74.0614ZM327.195 70.168V42.008H325.195V70.168H327.195ZM326.195 43.008H334.579V41.008H326.195V43.008ZM333.579 42.008V69.848H335.579V42.008H333.579ZM333.579 69.848C333.579 70.2777 333.714 70.6802 333.971 71.024L335.572 69.824C335.57 69.8215 335.57 69.8215 335.571 69.8241C335.573 69.8268 335.575 69.8308 335.576 69.8358C335.578 69.8407 335.579 69.845 335.579 69.848C335.58 69.851 335.579 69.8512 335.579 69.848H333.579ZM334.172 71.224C334.515 71.4818 334.918 71.616 335.348 71.616V69.616C335.344 69.616 335.345 69.6158 335.347 69.6162C335.35 69.6167 335.355 69.6177 335.36 69.6193C335.365 69.621 335.369 69.6228 335.371 69.6242C335.374 69.6256 335.374 69.6259 335.372 69.624L334.172 71.224ZM335.348 71.616H354.74V69.616H335.348V71.616ZM354.74 71.616C355.167 71.616 355.61 71.4798 355.959 71.1311L354.544 69.7169C354.582 69.6792 354.629 69.6494 354.676 69.6317C354.721 69.6151 354.746 69.616 354.74 69.616V71.616ZM355.959 71.1311C356.29 70.7998 356.508 70.3622 356.508 69.848H354.508C354.508 69.817 354.515 69.7797 354.53 69.7459C354.544 69.7143 354.556 69.7056 354.544 69.7169L355.959 71.1311ZM356.508 69.848V42.008H354.508V69.848H356.508ZM355.508 43.008H363.892V41.008H355.508V43.008ZM362.892 42.008V83.928H364.892V42.008H362.892ZM362.892 83.928C362.892 85.384 362.549 86.681 361.875 87.8419L363.604 88.8461C364.466 87.3617 364.892 85.7147 364.892 83.928H362.892ZM361.868 87.8537C361.19 89.0594 360.255 89.9942 359.049 90.6724L360.03 92.4156C361.555 91.5578 362.753 90.3592 363.611 88.8343L361.868 87.8537ZM359.017 90.6914C357.859 91.4012 356.569 91.76 355.124 91.76V93.76C356.921 93.76 358.575 93.3081 360.062 92.3966L359.017 90.6914ZM355.124 91.76H332.404V93.76H355.124V91.76ZM372.798 74.584L373.65 74.0614L372.798 74.584ZM372.798 46.296L371.945 45.7734L372.798 46.296ZM404.862 43.096L404.339 43.9487L404.351 43.9559L404.862 43.096ZM408.062 46.296L407.197 46.7981L407.203 46.8084L407.209 46.8186L408.062 46.296ZM408.062 74.584L407.209 74.0614L407.203 74.0716L407.197 74.0819L408.062 74.584ZM400.638 70.424L399.93 69.7169L400.638 70.424ZM400.638 50.52L399.837 51.12L399.923 51.2343L400.038 51.32L400.638 50.52ZM380.158 50.52L380.865 51.2271L380.158 50.52ZM380.158 70.424L379.358 71.024L379.443 71.1383L379.557 71.224L380.158 70.424ZM380.414 78C378.968 78 377.678 77.6412 376.52 76.9314L375.475 78.6366C376.962 79.5481 378.616 80 380.414 80V78ZM376.52 76.9314C375.332 76.2032 374.378 75.2496 373.65 74.0614L371.945 75.1066C372.838 76.5637 374.018 77.7435 375.475 78.6366L376.52 76.9314ZM373.65 74.0614C372.94 72.9033 372.582 71.6136 372.582 70.168H370.582C370.582 71.9651 371.033 73.6194 371.945 75.1066L373.65 74.0614ZM372.582 70.168V50.712H370.582V70.168H372.582ZM372.582 50.712C372.582 49.2664 372.94 47.9767 373.65 46.8186L371.945 45.7734C371.033 47.2606 370.582 48.9149 370.582 50.712H372.582ZM373.65 46.8186C374.378 45.6304 375.332 44.6768 376.52 43.9486L375.475 42.2434C374.018 43.1365 372.838 44.3163 371.945 45.7734L373.65 46.8186ZM376.52 43.9486C377.678 43.2388 378.968 42.88 380.414 42.88V40.88C378.616 40.88 376.962 41.3319 375.475 42.2434L376.52 43.9486ZM380.414 42.88H400.445V40.88H380.414V42.88ZM400.445 42.88C401.891 42.88 403.181 43.2388 404.339 43.9486L405.384 42.2434C403.897 41.3319 402.243 40.88 400.445 40.88V42.88ZM404.351 43.9559C405.575 44.6829 406.518 45.6287 407.197 46.7981L408.926 45.7939C408.069 44.3179 406.878 43.1304 405.372 42.2361L404.351 43.9559ZM407.209 46.8186C407.919 47.9767 408.277 49.2664 408.277 50.712H410.277C410.277 48.9149 409.826 47.2606 408.914 45.7734L407.209 46.8186ZM408.277 50.712V70.168H410.277V50.712H408.277ZM408.277 70.168C408.277 71.6136 407.919 72.9033 407.209 74.0614L408.914 75.1066C409.826 73.6194 410.277 71.9651 410.277 70.168H408.277ZM407.197 74.0819C406.513 75.259 405.586 76.2061 404.403 76.9314L405.448 78.6366C406.91 77.7406 408.074 76.5543 408.926 75.0861L407.197 74.0819ZM404.403 76.9314C403.249 77.6386 401.939 78 400.445 78V80C402.28 80 403.957 79.5507 405.448 78.6366L404.403 76.9314ZM400.445 78H380.414V80H400.445V78ZM380.734 71.616H400.126V69.616H380.734V71.616ZM400.126 71.616C400.553 71.616 400.996 71.4798 401.345 71.1311L399.93 69.7169C399.968 69.6792 400.015 69.6494 400.062 69.6317C400.107 69.6151 400.132 69.616 400.126 69.616V71.616ZM401.345 71.1311C401.676 70.7998 401.893 70.3623 401.893 69.848H399.893C399.893 69.817 399.901 69.7797 399.916 69.7459C399.93 69.7143 399.942 69.7056 399.93 69.7169L401.345 71.1311ZM401.893 69.848V51.032H399.893V69.848H401.893ZM401.893 51.032C401.893 50.5039 401.66 50.0369 401.237 49.72L400.038 51.32C400.013 51.302 399.97 51.2604 399.935 51.1912C399.9 51.122 399.893 51.0621 399.893 51.032H401.893ZM401.438 49.92C401.121 49.4975 400.654 49.264 400.126 49.264V51.264C400.095 51.264 400.035 51.257 399.966 51.2224C399.897 51.1878 399.856 51.144 399.837 51.12L401.438 49.92ZM400.126 49.264H380.734V51.264H400.126V49.264ZM380.734 49.264C380.219 49.264 379.782 49.4815 379.45 49.8129L380.865 51.2271C380.876 51.2158 380.867 51.2278 380.836 51.2418C380.802 51.2569 380.765 51.264 380.734 51.264V49.264ZM379.45 49.8129C379.102 50.1616 378.966 50.6044 378.966 51.032H380.966C380.966 51.0252 380.966 51.0508 380.95 51.0951C380.932 51.1425 380.902 51.1894 380.865 51.2271L379.45 49.8129ZM378.966 51.032V69.848H380.966V51.032H378.966ZM378.966 69.848C378.966 70.2777 379.1 70.6802 379.358 71.024L380.958 69.824C380.956 69.8215 380.956 69.8215 380.957 69.8241C380.959 69.8268 380.961 69.8308 380.962 69.8358C380.964 69.8407 380.965 69.845 380.965 69.848C380.966 69.851 380.966 69.8512 380.966 69.848H378.966ZM379.557 71.224C379.901 71.4818 380.304 71.616 380.734 71.616V69.616C380.73 69.616 380.731 69.6158 380.733 69.6162C380.736 69.6167 380.741 69.6177 380.746 69.6193C380.751 69.621 380.755 69.6228 380.757 69.6242C380.76 69.6256 380.76 69.6259 380.758 69.624L379.557 71.224ZM421.246 77.784L420.724 78.6367L420.736 78.6439L421.246 77.784ZM418.047 74.584L417.182 75.0861L417.188 75.0964L417.194 75.1066L418.047 74.584ZM416.895 41.88V40.88H415.895V41.88H416.895ZM425.279 41.88H426.279V40.88H425.279V41.88ZM425.47 70.424L424.671 71.024L424.756 71.1383L424.871 71.224L425.47 70.424ZM445.951 70.424L446.658 71.1311L446.658 71.1311L445.951 70.424ZM446.207 41.88V40.88H445.207V41.88H446.207ZM454.591 41.88H455.591V40.88H454.591V41.88ZM453.375 74.584L452.522 74.0614L452.516 74.0716L452.51 74.0819L453.375 74.584ZM450.238 77.784L449.716 76.9314L450.238 77.784ZM425.727 78C424.281 78 422.964 77.6411 421.757 76.9241L420.736 78.6439C422.259 79.5483 423.929 80 425.727 80V78ZM421.769 76.9314C420.581 76.2032 419.627 75.2496 418.899 74.0614L417.194 75.1066C418.087 76.5637 419.267 77.7435 420.724 78.6366L421.769 76.9314ZM418.911 74.0819C418.237 72.921 417.895 71.624 417.895 70.168H415.895C415.895 71.9547 416.32 73.6017 417.182 75.0861L418.911 74.0819ZM417.895 70.168V41.88H415.895V70.168H417.895ZM416.895 42.88H425.279V40.88H416.895V42.88ZM424.279 41.88V69.848H426.279V41.88H424.279ZM424.279 69.848C424.279 70.2777 424.413 70.6802 424.671 71.024L426.271 69.824C426.269 69.8215 426.269 69.8215 426.27 69.8241C426.272 69.8268 426.274 69.8308 426.275 69.8358C426.277 69.8407 426.278 69.845 426.278 69.848C426.279 69.851 426.279 69.8512 426.279 69.848H424.279ZM424.871 71.224C425.214 71.4818 425.617 71.616 426.047 71.616V69.616C426.043 69.616 426.044 69.6158 426.046 69.6162C426.049 69.6167 426.054 69.6177 426.059 69.6193C426.064 69.621 426.068 69.6228 426.07 69.6242C426.073 69.6256 426.073 69.6259 426.07 69.624L424.871 71.224ZM426.047 71.616H445.439V69.616H426.047V71.616ZM445.439 71.616C445.866 71.616 446.309 71.4798 446.658 71.1311L445.243 69.7169C445.281 69.6792 445.328 69.6494 445.375 69.6317C445.42 69.6151 445.445 69.616 445.439 69.616V71.616ZM446.658 71.1311C446.989 70.7998 447.207 70.3623 447.207 69.848H445.207C445.207 69.817 445.214 69.7797 445.229 69.7459C445.243 69.7143 445.255 69.7056 445.243 69.7169L446.658 71.1311ZM447.207 69.848V41.88H445.207V69.848H447.207ZM446.207 42.88H454.591V40.88H446.207V42.88ZM453.591 41.88V70.168H455.591V41.88H453.591ZM453.591 70.168C453.591 71.6136 453.232 72.9033 452.522 74.0614L454.227 75.1066C455.139 73.6194 455.591 71.9651 455.591 70.168H453.591ZM452.51 74.0819C451.826 75.259 450.899 76.2061 449.716 76.9314L450.761 78.6366C452.223 77.7406 453.387 76.5543 454.239 75.0861L452.51 74.0819ZM449.716 76.9314C448.562 77.6386 447.252 78 445.759 78V80C447.593 80 449.27 79.5507 450.761 78.6366L449.716 76.9314ZM445.759 78H425.727V80H445.759V78ZM463.891 79H462.891V80H463.891V79ZM465.107 46.296L465.959 46.8186L465.107 46.296ZM468.306 43.096L467.796 42.2361L467.784 42.2434L468.306 43.096ZM493.331 41.88H494.331V40.88H493.331V41.88ZM493.331 50.264V51.264H494.331V50.264H493.331ZM472.466 50.52L473.174 51.2271L472.466 50.52ZM472.275 79V80H473.275V79H472.275ZM464.891 79V50.712H462.891V79H464.891ZM464.891 50.712C464.891 49.2664 465.249 47.9767 465.959 46.8186L464.254 45.7734C463.342 47.2606 462.891 48.9149 462.891 50.712H464.891ZM465.959 46.8186C466.687 45.6304 467.641 44.6768 468.829 43.9486L467.784 42.2434C466.327 43.1365 465.147 44.3163 464.254 45.7734L465.959 46.8186ZM468.817 43.9559C470.029 43.2364 471.325 42.88 472.723 42.88V40.88C470.963 40.88 469.315 41.3343 467.796 42.2361L468.817 43.9559ZM472.723 42.88H493.331V40.88H472.723V42.88ZM492.331 41.88V50.264H494.331V41.88H492.331ZM493.331 49.264H473.043V51.264H493.331V49.264ZM473.043 49.264C472.528 49.264 472.091 49.4815 471.759 49.8129L473.174 51.2271C473.185 51.2158 473.176 51.2278 473.145 51.2418C473.111 51.2569 473.074 51.264 473.043 51.264V49.264ZM471.759 49.8129C471.411 50.1616 471.275 50.6044 471.275 51.032H473.275C473.275 51.0252 473.275 51.0508 473.259 51.0951C473.241 51.1425 473.211 51.1894 473.174 51.2271L471.759 49.8129ZM471.275 51.032V79H473.275V51.032H471.275ZM472.275 78H463.891V80H472.275V78ZM3.593 188H2.593V189H3.593V188ZM3.593 141.92V140.92H2.593V141.92H3.593ZM11.977 141.92H12.977V140.92H11.977V141.92ZM11.977 188V189H12.977V188H11.977ZM4.593 188V141.92H2.593V188H4.593ZM3.593 142.92H11.977V140.92H3.593V142.92ZM10.977 141.92V188H12.977V141.92H10.977ZM11.977 187H3.593V189H11.977V187ZM21.4835 188H20.4835V189H21.4835V188ZM21.4835 150.88V149.88H20.4835V150.88H21.4835ZM54.7635 152.096L54.2409 152.949L54.253 152.956L54.7635 152.096ZM57.9635 155.296L57.0987 155.798L57.1047 155.808L57.1109 155.819L57.9635 155.296ZM59.1795 188V189H60.1795V188H59.1795ZM50.7955 188H49.7955V189H50.7955V188ZM50.5395 159.52L49.7395 160.12L49.8252 160.234L49.9395 160.32L50.5395 159.52ZM30.0595 159.52L30.7666 160.227L30.7666 160.227L30.0595 159.52ZM29.8675 188V189H30.8675V188H29.8675ZM22.4835 188V150.88H20.4835V188H22.4835ZM21.4835 151.88H50.3475V149.88H21.4835V151.88ZM50.3475 151.88C51.7931 151.88 53.0828 152.239 54.2409 152.949L55.2861 151.243C53.7989 150.332 52.1446 149.88 50.3475 149.88V151.88ZM54.253 152.956C55.4775 153.683 56.4197 154.629 57.0987 155.798L58.8283 154.794C57.9713 153.318 56.7802 152.13 55.274 151.236L54.253 152.956ZM57.1109 155.819C57.8207 156.977 58.1795 158.266 58.1795 159.712H60.1795C60.1795 157.915 59.7276 156.261 58.8161 154.773L57.1109 155.819ZM58.1795 159.712V188H60.1795V159.712H58.1795ZM59.1795 187H50.7955V189H59.1795V187ZM51.7955 188V160.032H49.7955V188H51.7955ZM51.7955 160.032C51.7955 159.504 51.562 159.037 51.1395 158.72L49.9395 160.32C49.9155 160.302 49.8717 160.26 49.8371 160.191C49.8025 160.122 49.7955 160.062 49.7955 160.032H51.7955ZM51.3395 158.92C51.0226 158.498 50.5556 158.264 50.0275 158.264V160.264C49.9974 160.264 49.9375 160.257 49.8683 160.222C49.7991 160.188 49.7575 160.144 49.7395 160.12L51.3395 158.92ZM50.0275 158.264H30.6355V160.264H50.0275V158.264ZM30.6355 158.264C30.1213 158.264 29.6837 158.482 29.3524 158.813L30.7666 160.227C30.7779 160.216 30.7692 160.228 30.7376 160.242C30.7038 160.257 30.6665 160.264 30.6355 160.264V158.264ZM29.3524 158.813C29.0037 159.162 28.8675 159.604 28.8675 160.032H30.8675C30.8675 160.025 30.8684 160.051 30.8518 160.095C30.8341 160.143 30.8043 160.189 30.7666 160.227L29.3524 158.813ZM28.8675 160.032V188H30.8675V160.032H28.8675ZM29.8675 187H21.4835V189H29.8675V187ZM68.606 188H67.606V189H68.606V188ZM68.606 150.88V149.88H67.606V150.88H68.606ZM101.886 152.096L101.363 152.949L101.375 152.956L101.886 152.096ZM105.086 155.296L104.221 155.798L104.227 155.808L104.233 155.819L105.086 155.296ZM106.302 188V189H107.302V188H106.302ZM97.918 188H96.918V189H97.918V188ZM97.662 159.52L96.862 160.12L96.9477 160.234L97.062 160.32L97.662 159.52ZM77.182 159.52L77.8891 160.227V160.227L77.182 159.52ZM76.99 188V189H77.99V188H76.99ZM69.606 188V150.88H67.606V188H69.606ZM68.606 151.88H97.47V149.88H68.606V151.88ZM97.47 151.88C98.9156 151.88 100.205 152.239 101.363 152.949L102.409 151.243C100.921 150.332 99.2671 149.88 97.47 149.88V151.88ZM101.375 152.956C102.6 153.683 103.542 154.629 104.221 155.798L105.951 154.794C105.094 153.318 103.903 152.13 102.397 151.236L101.375 152.956ZM104.233 155.819C104.943 156.977 105.302 158.266 105.302 159.712H107.302C107.302 157.915 106.85 156.261 105.939 154.773L104.233 155.819ZM105.302 159.712V188H107.302V159.712H105.302ZM106.302 187H97.918V189H106.302V187ZM98.918 188V160.032H96.918V188H98.918ZM98.918 160.032C98.918 159.504 98.6845 159.037 98.262 158.72L97.062 160.32C97.038 160.302 96.9942 160.26 96.9596 160.191C96.925 160.122 96.918 160.062 96.918 160.032H98.918ZM98.462 158.92C98.1451 158.498 97.6781 158.264 97.15 158.264V160.264C97.1199 160.264 97.06 160.257 96.9908 160.222C96.9216 160.188 96.88 160.144 96.862 160.12L98.462 158.92ZM97.15 158.264H77.758V160.264H97.15V158.264ZM77.758 158.264C77.2438 158.264 76.8063 158.482 76.4749 158.813L77.8891 160.227C77.9004 160.216 77.8917 160.228 77.8601 160.242C77.8263 160.257 77.789 160.264 77.758 160.264V158.264ZM76.4749 158.813C76.1262 159.162 75.99 159.604 75.99 160.032H77.99C77.99 160.025 77.9909 160.051 77.9743 160.095C77.9566 160.143 77.9268 160.189 77.8891 160.227L76.4749 158.813ZM75.99 160.032V188H77.99V160.032H75.99ZM76.99 187H68.606V189H76.99V187ZM115.44 183.584L116.293 183.061L115.44 183.584ZM115.44 155.296L114.587 154.773L115.44 155.296ZM147.504 152.096L146.981 152.949L146.993 152.956L147.504 152.096ZM150.704 155.296L149.839 155.798L149.845 155.808L149.851 155.819L150.704 155.296ZM151.92 173.664V174.664H152.92V173.664H151.92ZM122.608 173.664V172.664H121.608V173.664H122.608ZM122.8 179.424L122 180.024L122.086 180.138L122.2 180.224L122.8 179.424ZM151.92 179.616H152.92V178.616H151.92V179.616ZM151.92 188V189H152.92V188H151.92ZM122.608 166.112H121.608V167.112H122.608V166.112ZM143.536 166.112V167.112H144.536V166.112H143.536ZM143.28 159.52L142.48 160.12L142.566 160.234L142.68 160.32L143.28 159.52ZM122.8 159.52L123.507 160.227L122.8 159.52ZM123.056 187C121.61 187 120.321 186.641 119.163 185.931L118.117 187.637C119.605 188.548 121.259 189 123.056 189V187ZM119.163 185.931C117.974 185.203 117.021 184.25 116.293 183.061L114.587 184.107C115.481 185.564 116.66 186.743 118.117 187.637L119.163 185.931ZM116.293 183.061C115.583 181.903 115.224 180.614 115.224 179.168H113.224C113.224 180.965 113.676 182.619 114.587 184.107L116.293 183.061ZM115.224 179.168V159.712H113.224V179.168H115.224ZM115.224 159.712C115.224 158.266 115.583 156.977 116.293 155.819L114.587 154.773C113.676 156.261 113.224 157.915 113.224 159.712H115.224ZM116.293 155.819C117.021 154.63 117.974 153.677 119.163 152.949L118.117 151.243C116.66 152.137 115.481 153.316 114.587 154.773L116.293 155.819ZM119.163 152.949C120.321 152.239 121.61 151.88 123.056 151.88V149.88C121.259 149.88 119.605 150.332 118.117 151.243L119.163 152.949ZM123.056 151.88H143.088V149.88H123.056V151.88ZM143.088 151.88C144.534 151.88 145.823 152.239 146.981 152.949L148.027 151.243C146.539 150.332 144.885 149.88 143.088 149.88V151.88ZM146.993 152.956C148.218 153.683 149.16 154.629 149.839 155.798L151.569 154.794C150.712 153.318 149.521 152.13 148.015 151.236L146.993 152.956ZM149.851 155.819C150.561 156.977 150.92 158.266 150.92 159.712H152.92C152.92 157.915 152.468 156.261 151.557 154.773L149.851 155.819ZM150.92 159.712V173.664H152.92V159.712H150.92ZM151.92 172.664H122.608V174.664H151.92V172.664ZM121.608 173.664V178.848H123.608V173.664H121.608ZM121.608 178.848C121.608 179.278 121.742 179.68 122 180.024L123.6 178.824C123.598 178.821 123.598 178.822 123.6 178.824C123.601 178.827 123.603 178.831 123.605 178.836C123.606 178.841 123.607 178.845 123.608 178.848C123.608 178.851 123.608 178.851 123.608 178.848H121.608ZM122.2 180.224C122.544 180.482 122.946 180.616 123.376 180.616V178.616C123.373 178.616 123.373 178.616 123.376 178.616C123.379 178.617 123.383 178.618 123.388 178.619C123.393 178.621 123.397 178.623 123.4 178.624C123.402 178.626 123.403 178.626 123.4 178.624L122.2 180.224ZM123.376 180.616H151.92V178.616H123.376V180.616ZM150.92 179.616V188H152.92V179.616H150.92ZM151.92 187H123.056V189H151.92V187ZM122.608 167.112H143.536V165.112H122.608V167.112ZM144.536 166.112V160.032H142.536V166.112H144.536ZM144.536 160.032C144.536 159.504 144.302 159.037 143.88 158.72L142.68 160.32C142.656 160.302 142.612 160.26 142.578 160.191C142.543 160.122 142.536 160.062 142.536 160.032H144.536ZM144.08 158.92C143.763 158.498 143.296 158.264 142.768 158.264V160.264C142.738 160.264 142.678 160.257 142.609 160.222C142.54 160.188 142.498 160.144 142.48 160.12L144.08 158.92ZM142.768 158.264H123.376V160.264H142.768V158.264ZM123.376 158.264C122.862 158.264 122.424 158.482 122.093 158.813L123.507 160.227C123.518 160.216 123.51 160.228 123.478 160.242C123.444 160.257 123.407 160.264 123.376 160.264V158.264ZM122.093 158.813C121.744 159.162 121.608 159.604 121.608 160.032H123.608C123.608 160.025 123.609 160.051 123.592 160.095C123.575 160.142 123.545 160.189 123.507 160.227L122.093 158.813ZM121.608 160.032V166.112H123.608V160.032H121.608ZM160.786 188H159.786V189H160.786V188ZM162.002 155.296L162.854 155.819L162.002 155.296ZM165.202 152.096L164.691 151.236L164.679 151.243L165.202 152.096ZM190.226 150.88H191.226V149.88H190.226V150.88ZM190.226 159.264V160.264H191.226V159.264H190.226ZM169.362 159.52L170.069 160.227L169.362 159.52ZM169.17 188V189H170.17V188H169.17ZM161.786 188V159.712H159.786V188H161.786ZM161.786 159.712C161.786 158.266 162.144 156.977 162.854 155.819L161.149 154.773C160.237 156.261 159.786 157.915 159.786 159.712H161.786ZM162.854 155.819C163.582 154.63 164.536 153.677 165.724 152.949L164.679 151.243C163.222 152.137 162.042 153.316 161.149 154.773L162.854 155.819ZM165.712 152.956C166.924 152.236 168.22 151.88 169.618 151.88V149.88C167.858 149.88 166.21 150.334 164.691 151.236L165.712 152.956ZM169.618 151.88H190.226V149.88H169.618V151.88ZM189.226 150.88V159.264H191.226V150.88H189.226ZM190.226 158.264H169.938V160.264H190.226V158.264ZM169.938 158.264C169.423 158.264 168.986 158.482 168.654 158.813L170.069 160.227C170.08 160.216 170.071 160.228 170.04 160.242C170.006 160.257 169.969 160.264 169.938 160.264V158.264ZM168.654 158.813C168.306 159.162 168.17 159.604 168.17 160.032H170.17C170.17 160.025 170.17 160.051 170.154 160.095C170.136 160.142 170.106 160.189 170.069 160.227L168.654 158.813ZM168.17 160.032V188H170.17V160.032H168.17ZM169.17 187H160.786V189H169.17V187ZM219.29 188H218.29V189H219.29V188ZM220.505 146.4L221.358 146.923L221.365 146.911L220.505 146.4ZM223.706 143.136L223.195 142.276L223.183 142.283L223.706 143.136ZM260.889 143.136L260.379 143.996L260.889 143.136ZM264.154 146.4L263.294 146.911L263.301 146.923L264.154 146.4ZM265.37 188V189H266.37V188H265.37ZM256.858 188H255.857V189H256.858V188ZM256.858 172.512H257.858V171.512H256.858V172.512ZM227.738 172.512V171.512H226.738V172.512H227.738ZM227.738 188V189H228.738V188H227.738ZM227.738 164.064H226.738V165.064H227.738V164.064ZM256.858 164.064V165.064H257.858V164.064H256.858ZM256.602 150.688L255.894 151.395L255.945 151.445L256.001 151.488L256.602 150.688ZM227.93 150.688L228.637 151.395H228.637L227.93 150.688ZM220.29 188V150.816H218.29V188H220.29ZM220.29 150.816C220.29 149.37 220.648 148.081 221.358 146.923L219.653 145.877C218.741 147.365 218.29 149.019 218.29 150.816H220.29ZM221.365 146.911C222.095 145.682 223.047 144.712 224.228 143.989L223.183 142.283C221.718 143.181 220.537 144.388 219.646 145.889L221.365 146.911ZM224.216 143.996C225.423 143.279 226.74 142.92 228.186 142.92V140.92C226.388 140.92 224.718 141.372 223.195 142.276L224.216 143.996ZM228.186 142.92H256.409V140.92H228.186V142.92ZM256.409 142.92C257.855 142.92 259.172 143.279 260.379 143.996L261.4 142.276C259.877 141.372 258.207 140.92 256.409 140.92V142.92ZM260.379 143.996C261.6 144.721 262.568 145.689 263.294 146.911L265.013 145.889C264.117 144.38 262.909 143.172 261.4 142.276L260.379 143.996ZM263.301 146.923C264.011 148.081 264.37 149.37 264.37 150.816H266.37C266.37 149.019 265.918 147.365 265.006 145.877L263.301 146.923ZM264.37 150.816V188H266.37V150.816H264.37ZM265.37 187H256.858V189H265.37V187ZM257.858 188V172.512H255.857V188H257.858ZM256.858 171.512H227.738V173.512H256.858V171.512ZM226.738 172.512V188H228.738V172.512H226.738ZM227.738 187H219.29V189H227.738V187ZM227.738 165.064H256.858V163.064H227.738V165.064ZM257.858 164.064V151.2H255.857V164.064H257.858ZM257.858 151.2C257.858 150.672 257.624 150.205 257.202 149.888L256.001 151.488C255.977 151.47 255.934 151.428 255.899 151.359C255.864 151.29 255.857 151.23 255.857 151.2H257.858ZM257.309 149.981C256.977 149.65 256.54 149.432 256.026 149.432V151.432C255.994 151.432 255.957 151.425 255.923 151.41C255.892 151.396 255.883 151.384 255.894 151.395L257.309 149.981ZM256.026 149.432H228.505V151.432H256.026V149.432ZM228.505 149.432C227.991 149.432 227.554 149.65 227.222 149.981L228.637 151.395C228.648 151.384 228.639 151.396 228.608 151.41C228.574 151.425 228.537 151.432 228.505 151.432V149.432ZM227.222 149.981C226.874 150.33 226.738 150.772 226.738 151.2H228.738C228.738 151.193 228.738 151.219 228.722 151.263C228.704 151.311 228.674 151.357 228.637 151.395L227.222 149.981ZM226.738 151.2V164.064H228.738V151.2H226.738ZM276.246 183.584L277.098 183.061L276.246 183.584ZM275.03 139.488V138.488H274.03V139.488H275.03ZM283.414 139.488H284.414V138.488H283.414V139.488ZM283.414 150.88H282.414V151.88H283.414V150.88ZM297.878 150.88H298.878V149.88H297.878V150.88ZM297.878 159.264V160.264H298.878V159.264H297.878ZM283.414 159.264V158.264H282.414V159.264H283.414ZM283.605 179.424L282.806 180.024L282.891 180.138L283.006 180.224L283.605 179.424ZM297.878 179.616H298.878V178.616H297.878V179.616ZM297.878 188V189H298.878V188H297.878ZM283.862 187C282.416 187 281.126 186.641 279.968 185.931L278.923 187.637C280.41 188.548 282.064 189 283.862 189V187ZM279.968 185.931C278.78 185.203 277.826 184.25 277.098 183.061L275.393 184.107C276.286 185.564 277.466 186.743 278.923 187.637L279.968 185.931ZM277.098 183.061C276.388 181.903 276.03 180.614 276.03 179.168H274.03C274.03 180.965 274.481 182.619 275.393 184.107L277.098 183.061ZM276.03 179.168V139.488H274.03V179.168H276.03ZM275.03 140.488H283.414V138.488H275.03V140.488ZM282.414 139.488V150.88H284.414V139.488H282.414ZM283.414 151.88H297.878V149.88H283.414V151.88ZM296.878 150.88V159.264H298.878V150.88H296.878ZM297.878 158.264H283.414V160.264H297.878V158.264ZM282.414 159.264V178.848H284.414V159.264H282.414ZM282.414 178.848C282.414 179.278 282.548 179.68 282.806 180.024L284.406 178.824C284.404 178.821 284.404 178.822 284.405 178.824C284.407 178.827 284.409 178.831 284.41 178.836C284.412 178.841 284.413 178.845 284.413 178.848C284.414 178.851 284.414 178.851 284.414 178.848H282.414ZM283.006 180.224C283.349 180.482 283.752 180.616 284.182 180.616V178.616C284.178 178.616 284.179 178.616 284.181 178.616C284.184 178.617 284.189 178.618 284.194 178.619C284.199 178.621 284.203 178.623 284.205 178.624C284.208 178.626 284.208 178.626 284.206 178.624L283.006 180.224ZM284.182 180.616H297.878V178.616H284.182V180.616ZM296.878 179.616V188H298.878V179.616H296.878ZM297.878 187H283.862V189H297.878V187ZM306.716 188H305.716V189H306.716V188ZM306.716 138.72V137.72H305.716V138.72H306.716ZM315.1 138.72H316.1V137.72H315.1V138.72ZM315.1 150.88H314.1V151.88H315.1V150.88ZM339.996 152.096L339.473 152.949L339.996 152.096ZM343.196 155.296L342.343 155.819L343.196 155.296ZM344.412 188V189H345.412V188H344.412ZM336.028 188H335.028V189H336.028V188ZM335.772 159.52L334.972 160.12L335.058 160.234L335.172 160.32L335.772 159.52ZM315.292 159.52L315.999 160.227V160.227L315.292 159.52ZM315.1 188V189H316.1V188H315.1ZM307.716 188V138.72H305.716V188H307.716ZM306.716 139.72H315.1V137.72H306.716V139.72ZM314.1 138.72V150.88H316.1V138.72H314.1ZM315.1 151.88H335.58V149.88H315.1V151.88ZM335.58 151.88C337.026 151.88 338.315 152.239 339.473 152.949L340.519 151.243C339.031 150.332 337.377 149.88 335.58 149.88V151.88ZM339.473 152.949C340.662 153.677 341.615 154.63 342.343 155.819L344.049 154.773C343.156 153.316 341.976 152.137 340.519 151.243L339.473 152.949ZM342.343 155.819C343.053 156.977 343.412 158.266 343.412 159.712H345.412C345.412 157.915 344.96 156.261 344.049 154.773L342.343 155.819ZM343.412 159.712V188H345.412V159.712H343.412ZM344.412 187H336.028V189H344.412V187ZM337.028 188V160.032H335.028V188H337.028ZM337.028 160.032C337.028 159.504 336.794 159.037 336.372 158.72L335.172 160.32C335.148 160.302 335.104 160.26 335.07 160.191C335.035 160.122 335.028 160.062 335.028 160.032H337.028ZM336.572 158.92C336.255 158.498 335.788 158.264 335.26 158.264V160.264C335.23 160.264 335.17 160.257 335.101 160.222C335.032 160.188 334.99 160.144 334.972 160.12L336.572 158.92ZM335.26 158.264H315.868V160.264H335.26V158.264ZM315.868 158.264C315.354 158.264 314.916 158.482 314.585 158.813L315.999 160.227C316.01 160.216 316.002 160.228 315.97 160.242C315.936 160.257 315.899 160.264 315.868 160.264V158.264ZM314.585 158.813C314.236 159.162 314.1 159.604 314.1 160.032H316.1C316.1 160.025 316.101 160.051 316.084 160.095C316.067 160.143 316.037 160.189 315.999 160.227L314.585 158.813ZM314.1 160.032V188H316.1V160.032H314.1ZM315.1 187H306.716V189H315.1V187ZM353.114 183.584L353.967 183.061L353.114 183.584ZM351.898 138.656V137.656H350.898V138.656H351.898ZM360.346 138.656H361.346V137.656H360.346V138.656ZM360.538 179.424L359.738 180.024L359.824 180.138L359.938 180.224L360.538 179.424ZM368.218 179.616H369.218V178.616H368.218V179.616ZM368.218 188V189H369.218V188H368.218ZM360.73 187C359.284 187 357.995 186.641 356.837 185.931L355.791 187.637C357.279 188.548 358.933 189 360.73 189V187ZM356.837 185.931C355.648 185.203 354.695 184.25 353.967 183.061L352.261 184.107C353.155 185.564 354.334 186.743 355.791 187.637L356.837 185.931ZM353.967 183.061C353.257 181.903 352.898 180.614 352.898 179.168H350.898C350.898 180.965 351.35 182.619 352.261 184.107L353.967 183.061ZM352.898 179.168V138.656H350.898V179.168H352.898ZM351.898 139.656H360.346V137.656H351.898V139.656ZM359.346 138.656V178.848H361.346V138.656H359.346ZM359.346 178.848C359.346 179.278 359.48 179.68 359.738 180.024L361.338 178.824C361.336 178.821 361.336 178.822 361.338 178.824C361.339 178.827 361.341 178.831 361.343 178.836C361.344 178.841 361.345 178.845 361.346 178.848C361.346 178.851 361.346 178.851 361.346 178.848H359.346ZM359.938 180.224C360.282 180.482 360.684 180.616 361.114 180.616V178.616C361.111 178.616 361.111 178.616 361.114 178.616C361.117 178.617 361.121 178.618 361.126 178.619C361.131 178.621 361.135 178.623 361.138 178.624C361.141 178.626 361.141 178.626 361.138 178.624L359.938 180.224ZM361.114 180.616H368.218V178.616H361.114V180.616ZM367.218 179.616V188H369.218V179.616H367.218ZM368.218 187H360.73V189H368.218V187ZM376.673 183.584L377.525 183.061L376.673 183.584ZM376.673 155.296L375.82 154.773L376.673 155.296ZM408.737 152.096L408.214 152.949L408.226 152.956L408.737 152.096ZM411.937 155.296L411.072 155.798L411.078 155.808L411.084 155.819L411.937 155.296ZM413.152 173.664V174.664H414.152V173.664H413.152ZM383.841 173.664V172.664H382.841V173.664H383.841ZM384.033 179.424L383.233 180.024L383.318 180.138L383.432 180.224L384.033 179.424ZM413.152 179.616H414.152V178.616H413.152V179.616ZM413.152 188V189H414.152V188H413.152ZM383.841 166.112H382.841V167.112H383.841V166.112ZM404.768 166.112V167.112H405.768V166.112H404.768ZM404.513 159.52L403.712 160.12L403.798 160.234L403.913 160.32L404.513 159.52ZM384.033 159.52L384.74 160.227L384.033 159.52ZM384.289 187C382.843 187 381.553 186.641 380.395 185.931L379.35 187.637C380.837 188.548 382.491 189 384.289 189V187ZM380.395 185.931C379.207 185.203 378.253 184.25 377.525 183.061L375.82 184.107C376.713 185.564 377.893 186.743 379.35 187.637L380.395 185.931ZM377.525 183.061C376.815 181.903 376.457 180.614 376.457 179.168H374.457C374.457 180.965 374.908 182.619 375.82 184.107L377.525 183.061ZM376.457 179.168V159.712H374.457V179.168H376.457ZM376.457 159.712C376.457 158.266 376.815 156.977 377.525 155.819L375.82 154.773C374.908 156.261 374.457 157.915 374.457 159.712H376.457ZM377.525 155.819C378.253 154.63 379.207 153.677 380.395 152.949L379.35 151.243C377.893 152.137 376.713 153.316 375.82 154.773L377.525 155.819ZM380.395 152.949C381.553 152.239 382.843 151.88 384.289 151.88V149.88C382.491 149.88 380.837 150.332 379.35 151.243L380.395 152.949ZM384.289 151.88H404.32V149.88H384.289V151.88ZM404.32 151.88C405.766 151.88 407.056 152.239 408.214 152.949L409.259 151.243C407.772 150.332 406.118 149.88 404.32 149.88V151.88ZM408.226 152.956C409.45 153.683 410.393 154.629 411.072 155.798L412.801 154.794C411.944 153.318 410.753 152.13 409.247 151.236L408.226 152.956ZM411.084 155.819C411.794 156.977 412.152 158.266 412.152 159.712H414.152C414.152 157.915 413.701 156.261 412.789 154.773L411.084 155.819ZM412.152 159.712V173.664H414.152V159.712H412.152ZM413.152 172.664H383.841V174.664H413.152V172.664ZM382.841 173.664V178.848H384.841V173.664H382.841ZM382.841 178.848C382.841 179.278 382.975 179.68 383.233 180.024L384.833 178.824C384.831 178.821 384.831 178.822 384.832 178.824C384.834 178.827 384.836 178.831 384.837 178.836C384.839 178.841 384.84 178.845 384.84 178.848C384.841 178.851 384.841 178.851 384.841 178.848H382.841ZM383.432 180.224C383.776 180.482 384.179 180.616 384.609 180.616V178.616C384.605 178.616 384.606 178.616 384.608 178.616C384.611 178.617 384.616 178.618 384.621 178.619C384.626 178.621 384.63 178.623 384.632 178.624C384.635 178.626 384.635 178.626 384.633 178.624L383.432 180.224ZM384.609 180.616H413.152V178.616H384.609V180.616ZM412.152 179.616V188H414.152V179.616H412.152ZM413.152 187H384.289V189H413.152V187ZM383.841 167.112H404.768V165.112H383.841V167.112ZM405.768 166.112V160.032H403.768V166.112H405.768ZM405.768 160.032C405.768 159.504 405.535 159.037 405.112 158.72L403.913 160.32C403.888 160.302 403.845 160.26 403.81 160.191C403.775 160.122 403.768 160.062 403.768 160.032H405.768ZM405.312 158.92C404.996 158.498 404.529 158.264 404.001 158.264V160.264C403.97 160.264 403.91 160.257 403.841 160.222C403.772 160.188 403.731 160.144 403.712 160.12L405.312 158.92ZM404.001 158.264H384.609V160.264H404.001V158.264ZM384.609 158.264C384.094 158.264 383.657 158.482 383.325 158.813L384.74 160.227C384.751 160.216 384.742 160.228 384.711 160.242C384.677 160.257 384.64 160.264 384.609 160.264V158.264ZM383.325 158.813C382.977 159.162 382.841 159.604 382.841 160.032H384.841C384.841 160.025 384.841 160.051 384.825 160.095C384.807 160.142 384.777 160.189 384.74 160.227L383.325 158.813ZM382.841 160.032V166.112H384.841V160.032H382.841ZM423.673 183.584L424.526 183.061L423.673 183.584ZM422.457 139.488V138.488H421.457V139.488H422.457ZM430.841 139.488H431.841V138.488H430.841V139.488ZM430.841 150.88H429.841V151.88H430.841V150.88ZM445.305 150.88H446.305V149.88H445.305V150.88ZM445.305 159.264V160.264H446.305V159.264H445.305ZM430.841 159.264V158.264H429.841V159.264H430.841ZM431.033 179.424L430.233 180.024L430.319 180.138L430.433 180.224L431.033 179.424ZM445.305 179.616H446.305V178.616H445.305V179.616ZM445.305 188V189H446.305V188H445.305ZM431.289 187C429.843 187 428.554 186.641 427.396 185.931L426.35 187.637C427.838 188.548 429.492 189 431.289 189V187ZM427.396 185.931C426.207 185.203 425.254 184.25 424.526 183.061L422.82 184.107C423.714 185.564 424.893 186.743 426.35 187.637L427.396 185.931ZM424.526 183.061C423.816 181.903 423.457 180.614 423.457 179.168H421.457C421.457 180.965 421.909 182.619 422.82 184.107L424.526 183.061ZM423.457 179.168V139.488H421.457V179.168H423.457ZM422.457 140.488H430.841V138.488H422.457V140.488ZM429.841 139.488V150.88H431.841V139.488H429.841ZM430.841 151.88H445.305V149.88H430.841V151.88ZM444.305 150.88V159.264H446.305V150.88H444.305ZM445.305 158.264H430.841V160.264H445.305V158.264ZM429.841 159.264V178.848H431.841V159.264H429.841ZM429.841 178.848C429.841 179.278 429.975 179.68 430.233 180.024L431.833 178.824C431.831 178.821 431.831 178.822 431.833 178.824C431.834 178.827 431.836 178.831 431.838 178.836C431.839 178.841 431.84 178.845 431.841 178.848C431.841 178.851 431.841 178.851 431.841 178.848H429.841ZM430.433 180.224C430.777 180.482 431.179 180.616 431.609 180.616V178.616C431.606 178.616 431.606 178.616 431.609 178.616C431.612 178.617 431.616 178.618 431.621 178.619C431.626 178.621 431.63 178.623 431.633 178.624C431.635 178.626 431.636 178.626 431.633 178.624L430.433 180.224ZM431.609 180.616H445.305V178.616H431.609V180.616ZM444.305 179.616V188H446.305V179.616H444.305ZM445.305 187H431.289V189H445.305V187ZM454.168 183.584L455.02 183.061L454.168 183.584ZM454.168 155.296L453.315 154.773L454.168 155.296ZM486.232 152.096L485.709 152.949L485.721 152.956L486.232 152.096ZM489.432 155.296L488.567 155.798L488.573 155.808L488.579 155.819L489.432 155.296ZM490.647 173.664V174.664H491.647V173.664H490.647ZM461.336 173.664V172.664H460.336V173.664H461.336ZM461.527 179.424L460.728 180.024L460.813 180.138L460.927 180.224L461.527 179.424ZM490.647 179.616H491.647V178.616H490.647V179.616ZM490.647 188V189H491.647V188H490.647ZM461.336 166.112H460.336V167.112H461.336V166.112ZM482.263 166.112V167.112H483.263V166.112H482.263ZM482.008 159.52L481.207 160.12L481.293 160.234L481.408 160.32L482.008 159.52ZM461.527 159.52L462.235 160.227L461.527 159.52ZM461.784 187C460.338 187 459.048 186.641 457.89 185.931L456.845 187.637C458.332 188.548 459.986 189 461.784 189V187ZM457.89 185.931C456.702 185.203 455.748 184.25 455.02 183.061L453.315 184.107C454.208 185.564 455.388 186.743 456.845 187.637L457.89 185.931ZM455.02 183.061C454.31 181.903 453.952 180.614 453.952 179.168H451.952C451.952 180.965 452.403 182.619 453.315 184.107L455.02 183.061ZM453.952 179.168V159.712H451.952V179.168H453.952ZM453.952 159.712C453.952 158.266 454.31 156.977 455.02 155.819L453.315 154.773C452.403 156.261 451.952 157.915 451.952 159.712H453.952ZM455.02 155.819C455.748 154.63 456.702 153.677 457.89 152.949L456.845 151.243C455.388 152.137 454.208 153.316 453.315 154.773L455.02 155.819ZM457.89 152.949C459.048 152.239 460.338 151.88 461.784 151.88V149.88C459.986 149.88 458.332 150.332 456.845 151.243L457.89 152.949ZM461.784 151.88H481.815V149.88H461.784V151.88ZM481.815 151.88C483.261 151.88 484.551 152.239 485.709 152.949L486.754 151.243C485.267 150.332 483.613 149.88 481.815 149.88V151.88ZM485.721 152.956C486.945 153.683 487.888 154.629 488.567 155.798L490.296 154.794C489.439 153.318 488.248 152.13 486.742 151.236L485.721 152.956ZM488.579 155.819C489.289 156.977 489.647 158.266 489.647 159.712H491.647C491.647 157.915 491.196 156.261 490.284 154.773L488.579 155.819ZM489.647 159.712V173.664H491.647V159.712H489.647ZM490.647 172.664H461.336V174.664H490.647V172.664ZM460.336 173.664V178.848H462.336V173.664H460.336ZM460.336 178.848C460.336 179.278 460.47 179.68 460.728 180.024L462.328 178.824C462.326 178.821 462.326 178.822 462.327 178.824C462.329 178.827 462.331 178.831 462.332 178.836C462.334 178.841 462.335 178.845 462.335 178.848C462.336 178.851 462.336 178.851 462.336 178.848H460.336ZM460.927 180.224C461.271 180.482 461.674 180.616 462.104 180.616V178.616C462.1 178.616 462.101 178.616 462.103 178.616C462.106 178.617 462.111 178.618 462.116 178.619C462.121 178.621 462.125 178.623 462.127 178.624C462.13 178.626 462.13 178.626 462.128 178.624L460.927 180.224ZM462.104 180.616H490.647V178.616H462.104V180.616ZM489.647 179.616V188H491.647V179.616H489.647ZM490.647 187H461.784V189H490.647V187ZM461.336 167.112H482.263V165.112H461.336V167.112ZM483.263 166.112V160.032H481.263V166.112H483.263ZM483.263 160.032C483.263 159.504 483.03 159.037 482.607 158.72L481.408 160.32C481.383 160.302 481.34 160.26 481.305 160.191C481.27 160.122 481.263 160.062 481.263 160.032H483.263ZM482.807 158.92C482.491 158.498 482.024 158.264 481.496 158.264V160.264C481.465 160.264 481.405 160.257 481.336 160.222C481.267 160.188 481.226 160.144 481.207 160.12L482.807 158.92ZM481.496 158.264H462.104V160.264H481.496V158.264ZM462.104 158.264C461.589 158.264 461.152 158.482 460.82 158.813L462.235 160.227C462.246 160.216 462.237 160.228 462.206 160.242C462.172 160.257 462.135 160.264 462.104 160.264V158.264ZM460.82 158.813C460.472 159.162 460.336 159.604 460.336 160.032H462.336C462.336 160.025 462.336 160.051 462.32 160.095C462.302 160.142 462.272 160.189 462.235 160.227L460.82 158.813ZM460.336 160.032V166.112H462.336V160.032H460.336Z" fill="black"/>
<defs>
<linearGradient id="paint0_linear_5_41" x1="-19.4819" y1="4" x2="320.06" y2="4" gradientUnits="userSpaceOnUse">
<stop stop-color="#FF4300"/>
<stop offset="1" stop-color="#FF6400"/>
</linearGradient>
</defs>
</svg>
